<svg width="264" height="280" viewBox="0 0 264 280" fill="none" xmlns="http://www.w3.org/2000/svg">
<mask id="mask0" mask-type="alpha" maskUnits="userSpaceOnUse" x="32" y="36" width="200" height="244">
<path d="M156 180.611V199H160C199.764 199 232 231.236 232 271V280H32V271C32 231.236 64.2355 199 104 199H108V180.611C90.7626 172.422 78.3722 155.687 76.3051 135.881C70.4803 135.058 66 130.052 66 124V110C66 104.054 70.3246 99.1181 76 98.1659V92C76 61.0721 101.072 36 132 36C162.928 36 188 61.0721 188 92V98.1659C193.675 99.1181 198 104.054 198 110V124C198 130.052 193.52 135.058 187.695 135.881C185.628 155.687 173.237 172.422 156 180.611Z" fill="white"/>
</mask>
<g mask="url(#mask0)">
<path d="M156 180.611V199H160C199.764 199 232 231.236 232 271V280H32V271C32 231.236 64.2355 199 104 199H108V180.611C90.7626 172.422 78.3722 155.687 76.3051 135.881C70.4803 135.058 66 130.052 66 124V110C66 104.054 70.3246 99.1181 76 98.1659V92C76 61.0721 101.072 36 132 36C162.928 36 188 61.0721 188 92V98.1659C193.675 99.1181 198 104.054 198 110V124C198 130.052 193.52 135.058 187.695 135.881C185.628 155.687 173.237 172.422 156 180.611Z" fill="#D0C6AC"/>
<path d="M264 36H0V280H264V36Z" fill="#EDB98A"/>
<path fill-rule="evenodd" clip-rule="evenodd" d="M188 115V138C188 168.928 162.928 194 132 194C101.072 194 76 168.928 76 138V115V130C76 160.928 101.072 186 132 186C162.928 186 188 160.928 188 130V115Z" fill="black" fill-opacity="0.1"/>
</g>
<mask id="mask1" mask-type="alpha" maskUnits="userSpaceOnUse" x="32" y="199" width="200" height="81">
<path fill-rule="evenodd" clip-rule="evenodd" d="M165.96 199.295C202.936 202.325 232 233.294 232 271.052V280H32V271.052C32 232.953 61.592 201.765 99.0454 199.22C99.0153 199.593 99 199.969 99 200.348C99 212.211 113.998 221.828 132.5 221.828C151.002 221.828 166 212.211 166 200.348C166 199.995 165.987 199.644 165.96 199.295Z" fill="white"/>
</mask>
<g mask="url(#mask1)">
<path fill-rule="evenodd" clip-rule="evenodd" d="M165.96 199.295C202.936 202.325 232 233.294 232 271.052V280H32V271.052C32 232.953 61.592 201.765 99.0454 199.22C99.0153 199.593 99 199.969 99 200.348C99 212.211 113.998 221.828 132.5 221.828C151.002 221.828 166 212.211 166 200.348C166 199.995 165.987 199.644 165.96 199.295Z" fill="#E6E6E6"/>
<path d="M264 170H0V280H264V170Z" fill="#F05454"/>
<g opacity="0.6">
<g opacity="0.6">
<path opacity="0.6" d="M132.5 228.761C154.39 228.761 172.135 216.712 172.135 201.848C172.135 186.984 154.39 174.934 132.5 174.934C110.61 174.934 92.8649 186.984 92.8649 201.848C92.8649 216.712 110.61 228.761 132.5 228.761Z" fill="black" fill-opacity="0.16"/>
</g>
</g>
</g>
<path fill-rule="evenodd" clip-rule="evenodd" d="M100.785 199.122C62.5123 200.804 32 232.365 32 271.052H32V280H101.362C97.9607 267.92 96 253.709 96 238.5C96 224.173 97.74 210.731 100.785 199.122ZM163.638 280H232V271.052C232 232.707 202.025 201.363 164.229 199.174C167.265 210.771 169 224.194 169 238.5C169 253.709 167.039 267.92 163.638 280Z" fill="#30475E"/>
<path fill-rule="evenodd" clip-rule="evenodd" d="M181 256L190.556 248.833C191.999 247.751 193.988 247.768 195.412 248.876L202 254L181 256Z" fill="#DDDDDD"/>
<path fill-rule="evenodd" clip-rule="evenodd" d="M101 198C97 217.333 98.6667 244.667 106 280H90L76 244L82 235L76 229L95 199C97.0277 198.369 99.0277 198.036 101 198Z" fill="#DDDDDD"/>
<path fill-rule="evenodd" clip-rule="evenodd" d="M163 198C167 217.333 165.333 244.667 158 280H174L188 244L182 235L188 229L169 199C166.972 198.369 164.972 198.036 163 198Z" fill="#DDDDDD"/>
<path d="M118 150C118 155.372 124.158 159 132 159C139.842 159 146 155.372 146 150C146 148.895 145.05 148 144 148C142.707 148 142.13 148.905 142 150C140.758 152.938 137.683 154.716 132 155C126.317 154.716 123.242 152.938 122 150C121.87 148.905 121.293 148 120 148C118.95 148 118 148.895 118 150Z" fill="black" fill-opacity="0.6"/>
<path fill-rule="evenodd" clip-rule="evenodd" d="M120 130C120 134.418 125.373 138 132 138C138.627 138 144 134.418 144 130" fill="black" fill-opacity="0.16"/>
<path fill-rule="evenodd" clip-rule="evenodd" d="M92.1602 112.447C94.0067 108.649 98.1644 106 102.998 106C107.814 106 111.959 108.63 113.815 112.407C114.367 113.529 113.582 114.447 112.791 113.767C110.34 111.66 106.859 110.344 102.998 110.344C99.2572 110.344 95.8738 111.579 93.4375 113.572C92.5468 114.3 91.6201 113.558 92.1602 112.447Z" fill="black" fill-opacity="0.6"/>
<path fill-rule="evenodd" clip-rule="evenodd" d="M150.16 112.447C152.007 108.649 156.164 106 160.998 106C165.814 106 169.959 108.63 171.815 112.407C172.367 113.529 171.582 114.447 170.791 113.767C168.34 111.66 164.859 110.344 160.998 110.344C157.257 110.344 153.874 111.579 151.438 113.572C150.547 114.3 149.62 113.558 150.16 112.447Z" fill="black" fill-opacity="0.6"/>
<path d="M91.9758 99.1279C93.471 89.6048 106.059 83.1087 115.164 87.301C116.167 87.763 117.355 87.3242 117.817 86.3209C118.279 85.3175 117.84 84.1297 116.836 83.6677C105.349 78.3782 89.9358 86.3325 88.0242 98.5075C87.8529 99.5987 88.5986 100.622 89.6898 100.793C90.781 100.965 91.8045 100.219 91.9758 99.1279Z" fill="black" fill-opacity="0.6"/>
<path d="M172.024 99.1279C170.529 89.6048 157.942 83.1087 148.837 87.301C147.833 87.763 146.645 87.3242 146.184 86.3209C145.722 85.3175 146.16 84.1297 147.164 83.6677C158.651 78.3782 174.064 86.3325 175.976 98.5075C176.147 99.5987 175.402 100.622 174.31 100.793C173.219 100.965 172.196 100.219 172.024 99.1279Z" fill="black" fill-opacity="0.6"/>
<mask id="mask2" mask-type="alpha" maskUnits="userSpaceOnUse" x="0" y="0" width="264" height="280">
<path d="M264 0H0V280H264V0Z" fill="white"/>
</mask>
<g mask="url(#mask2)">
<mask id="mask3" mask-type="alpha" maskUnits="userSpaceOnUse" x="73" y="17" width="117" height="82">
<path fill-rule="evenodd" clip-rule="evenodd" d="M179.15 39.9204C176.39 37.1004 173.186 34.7068 170.069 32.3065C169.382 31.7774 168.683 31.2611 168.011 30.7118C167.858 30.587 166.292 29.4657 166.105 29.0531C165.654 28.0603 165.915 28.8333 165.977 27.6486C166.056 26.1505 169.111 21.9193 166.831 20.949C165.828 20.5222 164.04 21.658 163.078 22.0331C161.196 22.7672 159.292 23.3932 157.347 23.9331C158.279 22.0763 160.055 18.3595 156.716 19.3543C154.114 20.1293 151.69 22.122 149.076 23.0594C149.941 21.6415 153.4 17.2479 150.274 17.0023C149.302 16.9258 146.471 18.7504 145.424 19.1396C142.287 20.3055 139.083 21.0591 135.79 21.6526C124.592 23.6707 111.497 23.0953 101.137 28.1935C93.1495 32.1237 85.2625 38.222 80.6484 45.9875C76.2012 53.4726 74.5378 61.6642 73.607 70.2413C72.924 76.5359 72.8684 83.0426 73.1879 89.36C73.2922 91.4298 73.525 100.971 76.532 98.0814C78.0301 96.6417 78.0191 90.8282 78.3963 88.8604C79.1473 84.9453 79.8701 81.0127 81.122 77.2227C83.3282 70.5439 85.9308 63.4297 91.4269 58.8297C94.954 55.8782 97.4308 51.8889 100.806 48.9112C102.322 47.5739 101.165 47.7131 103.603 47.8886C105.241 48.0063 106.885 48.0513 108.526 48.0942C112.322 48.1929 116.124 48.1677 119.921 48.1811C127.568 48.2087 135.179 48.3167 142.819 47.9164C146.214 47.7386 149.618 47.6423 153.004 47.3283C154.895 47.1528 158.251 45.9406 159.808 46.8669C161.233 47.7144 162.713 50.4818 163.736 51.6151C166.154 54.2936 169.036 56.3392 171.862 58.5355C177.757 63.1149 180.732 68.8667 182.523 76.0232C184.306 83.1533 183.806 89.7682 186.013 96.7848C186.402 98.0185 187.429 100.145 188.695 98.2389C188.93 97.8849 188.87 95.939 188.87 94.8193C188.87 90.2996 190.014 86.9084 190 82.3591C189.944 68.5272 189.496 50.4908 179.15 39.9204Z" fill="white"/>
</mask>
<g mask="url(#mask3)">
<path fill-rule="evenodd" clip-rule="evenodd" d="M179.15 39.9204C176.39 37.1004 173.186 34.7068 170.069 32.3065C169.382 31.7774 168.683 31.2611 168.011 30.7118C167.858 30.587 166.292 29.4657 166.105 29.0531C165.654 28.0603 165.915 28.8333 165.977 27.6486C166.056 26.1505 169.111 21.9193 166.831 20.949C165.828 20.5222 164.04 21.658 163.078 22.0331C161.196 22.7672 159.292 23.3932 157.347 23.9331C158.279 22.0763 160.055 18.3595 156.716 19.3543C154.114 20.1293 151.69 22.122 149.076 23.0594C149.941 21.6415 153.4 17.2479 150.274 17.0023C149.302 16.9258 146.471 18.7504 145.424 19.1396C142.287 20.3055 139.083 21.0591 135.79 21.6526C124.592 23.6707 111.497 23.0953 101.137 28.1935C93.1495 32.1237 85.2625 38.222 80.6484 45.9875C76.2012 53.4726 74.5378 61.6642 73.607 70.2413C72.924 76.5359 72.8684 83.0426 73.1879 89.36C73.2922 91.4298 73.525 100.971 76.532 98.0814C78.0301 96.6417 78.0191 90.8282 78.3963 88.8604C79.1473 84.9453 79.8701 81.0127 81.122 77.2227C83.3282 70.5439 85.9308 63.4297 91.4269 58.8297C94.954 55.8782 97.4308 51.8889 100.806 48.9112C102.322 47.5739 101.165 47.7131 103.603 47.8886C105.241 48.0063 106.885 48.0513 108.526 48.0942C112.322 48.1929 116.124 48.1677 119.921 48.1811C127.568 48.2087 135.179 48.3167 142.819 47.9164C146.214 47.7386 149.618 47.6423 153.004 47.3283C154.895 47.1528 158.251 45.9406 159.808 46.8669C161.233 47.7144 162.713 50.4818 163.736 51.6151C166.154 54.2936 169.036 56.3392 171.862 58.5355C177.757 63.1149 180.732 68.8667 182.523 76.0232C184.306 83.1533 183.806 89.7682 186.013 96.7848C186.402 98.0185 187.429 100.145 188.695 98.2389C188.93 97.8849 188.87 95.939 188.87 94.8193C188.87 90.2996 190.014 86.9084 190 82.3591C189.944 68.5272 189.496 50.4908 179.15 39.9204Z" fill="#1F3140"/>
<path d="M263 0H-1V280H263V0Z" fill="#2C1B18"/>
<g filter="url(#filter0_d)">
<path fill-rule="evenodd" clip-rule="evenodd" d="M115.249 100.275C117.621 100.297 118.742 100.692 119.146 103.165C119.555 105.67 119.157 108.487 118.685 110.955C117.965 114.723 116.767 118.414 113.978 121.168C112.508 122.619 110.717 123.775 108.811 124.564C107.799 124.983 106.73 125.286 105.661 125.516C105.349 125.583 102.682 125.95 104.318 125.763C100.501 126.199 96.3601 126.182 93.1724 123.752C89.6396 121.06 87.2203 116.8 86.1565 112.556C85.5341 110.073 84.2263 104.134 86.6159 102.149C89.3532 99.8745 115.249 100.275 115.249 100.275ZM91.2178 93.4905C85.7775 93.6778 82.1467 94.6338 79.4633 100.069C74.5457 110.03 82.9628 124.969 92.3523 129.039C103.329 133.799 115.592 128.532 121.396 119.006C124.469 113.962 126.022 106.323 125.922 100.504C125.795 93.0765 120.607 92.8705 114.509 93.0338L91.2178 93.4905Z" fill="#D6EAF2"/>
<path fill-rule="evenodd" clip-rule="evenodd" d="M148.681 100.273C146.309 100.295 145.188 100.689 144.784 103.163C144.374 105.668 144.772 108.485 145.244 110.952C145.965 114.72 147.163 118.412 149.952 121.166C151.421 122.616 153.213 123.772 155.119 124.562C156.131 124.981 157.2 125.284 158.268 125.513C158.581 125.58 161.247 125.948 159.612 125.761C163.429 126.197 167.57 126.179 170.757 123.75C174.29 121.058 176.709 116.798 177.773 112.554C178.396 110.071 179.703 104.132 177.314 102.147C174.576 99.8719 148.681 100.273 148.681 100.273ZM172.712 93.4879C178.152 93.6752 181.783 94.6316 184.466 100.067C189.384 110.028 180.967 124.966 171.577 129.037C160.6 133.797 148.338 128.529 142.534 119.004C139.461 113.96 137.907 106.321 138.007 100.501C138.135 93.0739 143.323 92.8679 149.421 93.0316L172.712 93.4879Z" fill="#D6EAF2"/>
<path fill-rule="evenodd" clip-rule="evenodd" d="M82.1969 97.9267C78.785 98.1184 74.8861 98.1644 71.6901 99.6394C68.3054 101.201 67.7823 104.739 72.0492 105.226C73.971 105.446 75.8949 105.083 77.7872 104.745C79.3369 104.468 81.442 104.558 82.9065 103.966C85.6355 102.862 85.4603 97.74 82.1969 97.9267Z" fill="#D6EAF2"/>
<path fill-rule="evenodd" clip-rule="evenodd" d="M181.735 97.9267C185.147 98.1184 189.046 98.1644 192.242 99.6394C195.626 101.201 196.149 104.739 191.882 105.226C189.961 105.446 188.037 105.083 186.144 104.745C184.595 104.468 182.49 104.558 181.025 103.966C178.296 102.862 178.471 97.74 181.735 97.9267Z" fill="#D6EAF2"/>
<path fill-rule="evenodd" clip-rule="evenodd" d="M142.109 100.013C140.163 97.7126 135.091 96.3846 131.891 96.3846C128.691 96.3846 123.768 97.7126 121.822 100.013C120.841 101.172 120.807 102.724 122.508 103.451C124.626 104.357 126.517 102.714 128.213 101.855C130.381 100.757 133.712 100.877 135.719 101.855C137.427 102.688 139.305 104.357 141.423 103.451C143.124 102.724 143.091 101.172 142.109 100.013Z" fill="#D6EAF2"/>
</g>
</g>
</g>
<defs>
<filter id="filter0_d" x="65" y="91.0001" width="133.932" height="45.8202" filterUnits="userSpaceOnUse" color-interpolation-filters="sRGB">
<feFlood flood-opacity="0" result="BackgroundImageFix"/>
<feColorMatrix in="SourceAlpha" type="matrix" values="0 0 0 0 0 0 0 0 0 0 0 0 0 0 0 0 0 0 127 0"/>
<feOffset dy="2"/>
<feGaussianBlur stdDeviation="2"/>
<feColorMatrix type="matrix" values="0 0 0 0 0 0 0 0 0 0 0 0 0 0 0 0 0 0 0.2 0"/>
<feBlend mode="normal" in2="BackgroundImageFix" result="effect1_dropShadow"/>
<feBlend mode="normal" in="SourceGraphic" in2="effect1_dropShadow" result="shape"/>
</filter>
</defs>
</svg>
